# xmcd
#
# Track frame offsets:
#	150
#	13316
#	32434
#	47462
#	66994
#	75915
#	88568
#	103987
#	115948
#	134226
#	156841
#	178904
#	192754
#	207429
#	228828
#	241973
#	253035
#	265786
#	273424
#	287053
#	297923
#
# Disc length: 4250 seconds
#
# Revision: 1
# Processed by: cddbd v1.5.1PL0 Copyright (c) Steve Scherf et al.
# Submitted via: audiograbber 1.83.01
#
DISCID=32109815
DTITLE=Various Artist - Capital Gold Blues Legends - CD 1
DYEAR=2005
DGENRE=Blues
TTITLE0=Fleetwood Mac - Black Magic Woman
TTITLE1=Gary Moore - Still Got The Blues
TTITLE2=Animals (The) - House Of The Rising Sun
TTITLE3=John Lee Hooker - Boom Boom
TTITLE4=John Mayall And The Bluesbreakers - Crawling Up A Hill
TTITLE5=Stevie Ray Vaughan - Pride And Joy
TTITLE6=Robert Cray Band - Smoking Gun
TTITLE7=Taj Mahal - Six Days On The Road
TTITLE8=Allman Brothers Band - Statesboro Blues
TTITLE9=Rory Gallagher - Messin' With The Kid (Live)
TTITLE10=George Thorogood And the Destroyers - Bad To The Bone
TTITLE11=Juicy Lucy - Who Do You Love
TTITLE12=Dr Feelgood - Route 66 (Live)
TTITLE13=Free - Hunter (The) (Live)
TTITLE14=Gary Moore And BB King - Since I Met You Baby
TTITLE15=Canned Heat - Lets Work Together
TTITLE16=Johnny Winter - Rollin' And Tumblin'
TTITLE17=Jeff Beck - You Shook Me
TTITLE18=Sonny Terry And Brownie McGhee - Key To The Highway
TTITLE19=Chicken Shack - I'd Rather Go Blind
TTITLE20=Bonnie Raitt - Love Me Like A Man (Live)
EXTD=
EXTT0=
EXTT1=
EXTT2=
EXTT3=
EXTT4=
EXTT5=
EXTT6=
EXTT7=
EXTT8=
EXTT9=
EXTT10=
EXTT11=
EXTT12=
EXTT13=
EXTT14=
EXTT15=
EXTT16=
EXTT17=
EXTT18=
EXTT19=
EXTT20=
PLAYORDER=
